<svg width="54" height="54" fill="none" xmlns="http://www.w3.org/2000/svg"><path d="M32.454 49.184c-.445.111-.899.21-1.35.293a2.173 2.173 0 00-.854 3.91 2.164 2.164 0 001.645.36c.537-.1 1.078-.218 1.609-.35a2.17 2.17 0 10-1.05-4.213zm16.054-29.097a2.169 2.169 0 002.743 1.378 2.171 2.171 0 001.379-2.743 26.905 26.905 0 00-.565-1.545 2.17 2.17 0 10-4.031 1.612c.17.425.33.862.474 1.298zm-9 25.998c-.383.253-.778.497-1.176.727a2.171 2.171 0 002.17 3.76 27.02 27.02 0 001.4-.865 2.171 2.171 0 00-2.394-3.622zM53.98 26.15a2.171 2.171 0 00-4.339.17c.018.459.023.923.012 1.38a2.168 2.168 0 002.123 2.22 2.17 2.17 0 002.218-2.123c.012-.547.007-1.1-.014-1.647zm-5.826 14.224a2.17 2.17 0 00-3.04.434c-.276.367-.566.73-.863 1.08a2.171 2.171 0 003.306 2.814c.354-.417.7-.85 1.03-1.289a2.171 2.171 0 00-.433-3.039zm3.191-7.847a2.17 2.17 0 00-2.721 1.422c-.137.437-.29.876-.454 1.306a2.172 2.172 0 001.256 2.801 2.17 2.17 0 002.801-1.255c.195-.511.376-1.034.54-1.553a2.171 2.171 0 00-1.422-2.721zM22.983 49.496a22.42 22.42 0 01-5.568-1.77c-.02-.01-.04-.023-.061-.032a23.641 23.641 0 01-1.24-.629 23.146 23.146 0 01-2.16-1.35C3.742 38.522 1.287 24.362 8.481 14.15a22.557 22.557 0 015.568-5.539l.077-.054c7.437-5.125 17.535-5.47 25.432-.204l-1.696 2.45c-.471.682-.181 1.18.644 1.105l7.367-.66c.827-.074 1.321-.789 1.099-1.587l-1.979-7.128c-.221-.799-.788-.895-1.26-.213l-1.7 2.457C36.238.887 29.287-.597 22.388.6c-.695.12-1.38.267-2.056.438l-.013.003c-.026.006-.053.015-.078.022A26.768 26.768 0 005.398 11.01c-.032.037-.064.073-.093.113a25.67 25.67 0 00-.938 1.354c-.024.034-.041.07-.061.104A26.763 26.763 0 00.028 28.368v.055c.024.545.067 1.097.126 1.64.003.036.011.069.017.104.06.546.137 1.094.232 1.642.968 5.588 3.604 10.616 7.554 14.528l.028.029.01.009a27.36 27.36 0 003.458 2.89 26.765 26.765 0 0010.764 4.505 2.17 2.17 0 10.767-4.274z" fill="#fff"/><path d="M25.668 9.658c-.971 0-1.757.787-1.757 1.756v17.499l16.003 8.273a1.756 1.756 0 001.613-3.12l-14.104-7.292v-15.36c0-.97-.786-1.756-1.755-1.756z" fill="#fff"/></svg>