<svg width="66" height="66" fill="none" xmlns="http://www.w3.org/2000/svg"><g clip-path="url(#a)" fill="#fff"><path d="M33.423 24.494a6.732 6.732 0 100 13.465 6.732 6.732 0 000-13.465zm0 10.259a3.527 3.527 0 110-7.053 3.527 3.527 0 010 7.053z"/><path d="M60.273 9.106l-43.76-4.97a6.01 6.01 0 00-4.73 1.363A6.091 6.091 0 009.46 9.667l-.802 6.572H6.174c-3.527 0-6.172 3.126-6.172 6.652v32.78a6.091 6.091 0 006.172 6.252h44c3.527 0 6.733-2.725 6.733-6.252V54.39a8.015 8.015 0 003.045-1.283 6.653 6.653 0 002.324-4.327l3.687-32.54a6.492 6.492 0 00-5.69-7.133zM53.7 55.67c0 1.763-1.764 3.046-3.527 3.046h-44a2.885 2.885 0 01-2.966-3.046v-5.93l12.423-9.138a3.847 3.847 0 014.969.24l8.736 7.695a7.534 7.534 0 004.729 1.763 7.293 7.293 0 003.847-1.042L53.7 40.123V55.67zm0-19.315L36.229 46.534c-1.5.89-3.4.728-4.73-.4l-8.815-7.775a7.133 7.133 0 00-8.897-.32L3.208 45.733V22.89c0-1.763 1.202-3.446 2.966-3.446h44a3.687 3.687 0 013.527 3.446v13.465zm9.06-20.55l-.004.032-3.767 32.54a2.725 2.725 0 01-1.042 2.164c-.32.32-1.042.48-1.042.64v-28.29a6.893 6.893 0 00-6.732-6.653h-38.31l.721-6.252c.157-.81.58-1.543 1.203-2.083a3.686 3.686 0 012.404-.642l43.68 5.05a3.206 3.206 0 012.888 3.494z"/></g><defs><clipPath id="a"><path fill="#fff" d="M0 0h66v66H0z"/></clipPath></defs></svg>