<svg width="74" height="74" fill="none" xmlns="http://www.w3.org/2000/svg"><path d="M50.008 0c-.798 0-1.446.647-1.446 1.445v6.649a1.445 1.445 0 002.891 0V1.445C51.453.647 50.806 0 50.008 0zM16.766 45.094a1.446 1.446 0 100 2.891 1.446 1.446 0 000-2.891z" fill="#fff"/><path d="M70.242 42.203a5.788 5.788 0 00-5.781-5.781H53.67c1.67-4.279 2.347-9.315 2.217-13.798-.025-.855-.058-1.35-.103-1.661a5.79 5.79 0 00-5.777-5.643 5.788 5.788 0 00-5.781 5.782v1.445c0 9.14-11.738 14.277-20.597 16.48a4.342 4.342 0 00-3.974-2.605H5.203c-.798 0-1.445.647-1.445 1.445v34.688c0 .798.647 1.445 1.445 1.445h14.453a4.341 4.341 0 003.96-2.574c.734.188 1.415.366 2.044.53C30.706 73.274 33.486 74 40.245 74H55.79a5.788 5.788 0 005.781-5.781c0-1.189-.36-2.294-.978-3.214a5.783 5.783 0 003.869-5.458 5.786 5.786 0 00-.968-3.218 5.784 5.784 0 002.88-8.668 5.783 5.783 0 003.87-5.458zm-49.14 27.461c0 .797-.649 1.445-1.446 1.445H6.648V39.313h13.008c.797 0 1.446.648 1.446 1.445v28.906zm43.359-24.57h-7.227a1.445 1.445 0 000 2.89h4.336a2.89 2.89 0 110 5.781h-7.226a1.445 1.445 0 000 2.891h4.336a2.881 2.881 0 012.89 2.89 2.89 2.89 0 01-2.89 2.892h-7.227a1.445 1.445 0 000 2.89h4.336a2.894 2.894 0 012.89 2.89 2.894 2.894 0 01-2.89 2.891H40.246c-6.39 0-8.885-.651-13.856-1.95a423.94 423.94 0 00-2.398-.62V41.918c10.46-2.492 23.125-8.573 23.125-19.371v-1.445a2.894 2.894 0 012.89-2.891 2.895 2.895 0 012.891 2.886v.005c0 .628.784 8.337-2.36 15.32h-4.866a1.445 1.445 0 000 2.89H64.46a2.89 2.89 0 110 5.781z" fill="#fff"/><path d="M16.766 50.875c-.798 0-1.446.647-1.446 1.445v11.563a1.445 1.445 0 002.89 0V52.32c0-.798-.646-1.445-1.444-1.445zM38.445 18.21h-5.78a1.445 1.445 0 000 2.892h5.78a1.445 1.445 0 000-2.891zm28.907 0H61.57a1.445 1.445 0 000 2.892h5.782a1.445 1.445 0 000-2.891zM63.293 6.37a1.446 1.446 0 00-2.044 0l-4.087 4.088a1.446 1.446 0 002.044 2.044l4.087-4.087a1.446 1.446 0 000-2.044zm-20.44 4.088l-4.087-4.087a1.446 1.446 0 00-2.044 2.044l4.087 4.087a1.446 1.446 0 002.044-2.044z" fill="#fff"/></svg>