<svg width="60" height="60" fill="none" xmlns="http://www.w3.org/2000/svg"><path d="M30 0C13.43 0 0 13.432 0 30c0 16.57 13.43 30 30 30 16.568 0 30-13.43 30-30-.002-16.568-13.432-30-30-30zm0 54.375C16.538 54.375 5.625 43.462 5.625 30S16.538 5.627 30 5.627c13.46 0 24.375 10.91 24.375 24.373 0 13.462-10.914 24.375-24.375 24.375zM41.286 26.25h-7.538v-7.5c0-1.035-.84-1.875-1.875-1.875h-3.75c-1.037 0-1.875.84-1.875 1.875v7.5h-7.496c-1.039 0-1.879.84-1.879 1.875v3.75c0 1.037.84 1.875 1.879 1.875h7.498v7.483c0 1.035.838 1.873 1.875 1.873h3.75a1.874 1.874 0 001.875-1.873V33.75h7.538a1.875 1.875 0 001.878-1.875v-3.75a1.882 1.882 0 00-1.88-1.875z" fill="#3DB39E"/></svg>