<svg width="64" height="64" fill="none" xmlns="http://www.w3.org/2000/svg"><g clip-path="url(#a)" fill="#fff"><path d="M15.973 49.36a1.34 1.34 0 01-.944-.39C10.5 44.438 8 38.41 8 32c0-6.41 2.499-12.437 7.032-16.968a1.334 1.334 0 011.885 1.885A21.19 21.19 0 0010.667 32a21.19 21.19 0 006.25 15.083 1.334 1.334 0 01-.944 2.277z"/><path d="M10.32 55.013a1.34 1.34 0 01-.944-.389C3.331 48.576 0 40.541 0 32c0-8.541 3.33-16.576 9.379-22.621a1.334 1.334 0 011.885 1.885C5.72 16.805 2.667 24.171 2.667 32c0 7.83 3.053 15.195 8.597 20.736a1.334 1.334 0 01-.944 2.277zm43.36 0a1.334 1.334 0 01-.944-2.275C58.28 47.196 61.334 39.83 61.334 32s-3.054-15.195-8.598-20.736a1.334 1.334 0 011.886-1.885C60.668 15.424 64 23.459 64 32c0 8.541-3.33 16.576-9.379 22.621a1.32 1.32 0 01-.94.392z"/><path d="M48.027 49.36a1.334 1.334 0 01-.944-2.275c4.03-4.032 6.25-9.386 6.25-15.085a21.19 21.19 0 00-6.25-15.083 1.334 1.334 0 011.885-1.885A23.834 23.834 0 0156 32c0 6.41-2.498 12.437-7.032 16.968a1.32 1.32 0 01-.941.392zm-22.499 3.973a1.35 1.35 0 01-.595-.138 1.337 1.337 0 01-.69-1.55l4.675-16.978H20c-.504 0-.965-.286-1.192-.736a1.338 1.338 0 01.125-1.395l15.955-21.333a1.333 1.333 0 012.384 1.013l-2.368 14.45H44c.507 0 .97.289 1.197.745.224.456.168 1-.14 1.402l-18.473 24c-.258.336-.653.52-1.056.52zM22.664 32h8.003c.416 0 .808.195 1.061.525.25.334.334.763.224 1.163L28.62 45.8l12.67-16.467h-7.957a1.33 1.33 0 01-1.017-.469 1.344 1.344 0 01-.3-1.08l1.74-10.619L22.665 32z"/></g><defs><clipPath id="a"><path fill="#fff" d="M0 0h64v64H0z"/></clipPath></defs></svg>