<svg width="126" height="126" fill="none" xmlns="http://www.w3.org/2000/svg"><path d="M111.461 30.532l-42.054-6.99a1.679 1.679 0 00-1.932 1.382L64.46 43.056 52.219 27.144a1.68 1.68 0 00-2.356-.307L16.076 52.832a1.68 1.68 0 00-.307 2.356l20.703 26.91c.055.07.12.128.184.188v22.738a5.863 5.863 0 005.856 5.856h58.847a5.863 5.863 0 005.856-5.856V66.322l.002-.007 5.625-33.85a1.68 1.68 0 00-1.381-1.933zm-7.606 43.388h-3.427c-.423-2.617-2.691-4.624-5.426-4.624-2.734 0-5.002 2.007-5.425 4.624h-3.26c-3.171-5.067-8.8-8.447-15.204-8.447-6.415 0-12.05 3.389-15.218 8.468-.068-.009-.136-.021-.206-.021H40.015V61.296A2.499 2.499 0 0142.51 58.8h58.848a2.499 2.499 0 012.496 2.496V73.92zm-6.71.878a2.145 2.145 0 01-2.142 2.142 2.145 2.145 0 01-2.143-2.142c0-1.181.961-2.142 2.142-2.142 1.182 0 2.143.961 2.143 2.142zm-26.032-5.965c8.03 0 14.565 6.534 14.565 14.566 0 8.03-6.534 14.565-14.566 14.565-8.03 0-14.565-6.534-14.565-14.566 0-8.03 6.534-14.565 14.566-14.565zM58.724 55.44h-1.91v-3.36a1.68 1.68 0 00-1.68-1.68h-10.08a1.68 1.68 0 00-1.68 1.68v3.36h-.864a5.863 5.863 0 00-5.856 5.856v6.574l-9.542-12.402 22.47-17.286 11.06 14.376-1.918 2.882zm-5.27 0h-6.72v-1.68h6.72v1.68zm46.627 0h-11.52l-5.55-6.96a8.25 8.25 0 00-6.482-3.12h-3.51l1.985-11.945 27.965 4.647-2.888 17.378zm-30.206-6.72h6.654c1.508 0 2.914.677 3.854 1.856l3.88 4.864H62.761l3.01-4.521a4.92 4.92 0 014.105-2.2zm-50.42 5.75L50.58 30.524l13.348 17.35c-.35.36-.67.756-.954 1.183l-.365.547L51.22 34.801a1.68 1.68 0 00-2.355-.306L23.733 53.83a1.68 1.68 0 00-.307 2.356l13.23 17.194v3.445l-17.2-22.355zm81.903 53.05H42.511a2.499 2.499 0 01-2.496-2.496V77.28h14.249a17.84 17.84 0 00-1.077 6.118c0 9.884 8.042 17.926 17.925 17.926 9.884 0 17.926-8.042 17.926-17.925 0-2.148-.38-4.209-1.077-6.12h2.137a5.504 5.504 0 004.904 3.022 5.504 5.504 0 004.905-3.021h3.948v27.744a2.5 2.5 0 01-2.496 2.496zm3.995-50.493a5.856 5.856 0 00-1.929-1.204l3.136-18.867a1.68 1.68 0 00-1.382-1.932l-31.28-5.199a1.678 1.678 0 00-1.933 1.382L69.612 45.37a8.278 8.278 0 00-2.19.363l3.092-18.599 38.739 6.438-3.899 23.456z" fill="#FF9B00"/><path d="M92.095 53.76h6.72a1.68 1.68 0 000-3.36h-6.72a1.68 1.68 0 000 3.36zm-68.88-30.24a1.68 1.68 0 001.68-1.68V16.8a1.68 1.68 0 00-3.36 0v5.04c0 .928.752 1.68 1.68 1.68zm0 3.36a1.68 1.68 0 00-1.68 1.68v5.04a1.68 1.68 0 003.36 0v-5.04a1.68 1.68 0 00-1.68-1.68zm-1.68-1.68a1.68 1.68 0 00-1.68-1.68h-5.04a1.68 1.68 0 000 3.36h5.04a1.68 1.68 0 001.68-1.68zm5.04 1.68h5.04a1.68 1.68 0 000-3.36h-5.04a1.68 1.68 0 000 3.36zm-4.2 58.8a5.886 5.886 0 00-5.88 5.88 5.886 5.886 0 005.88 5.88 5.886 5.886 0 005.88-5.88 5.886 5.886 0 00-5.88-5.88zm0 8.4c-1.39 0-2.52-1.13-2.52-2.52 0-1.39 1.13-2.52 2.52-2.52 1.39 0 2.52 1.13 2.52 2.52 0 1.39-1.13 2.52-2.52 2.52zm26.04-72.24a1.68 1.68 0 100-3.36 1.68 1.68 0 000 3.36zm-20.16 87.36a1.68 1.68 0 100-3.36 1.68 1.68 0 000 3.36zm77.279-89.04a1.68 1.68 0 100-3.361 1.68 1.68 0 000 3.361zM71.112 94.88c6.331 0 11.482-5.15 11.482-11.481 0-6.33-5.151-11.481-11.482-11.481-6.33 0-11.482 5.15-11.482 11.481 0 6.33 5.15 11.482 11.482 11.482zm0-19.603c4.479 0 8.122 3.644 8.122 8.122s-3.644 8.121-8.122 8.121-8.122-3.643-8.122-8.121c0-4.478 3.644-8.122 8.122-8.122z" fill="#FF9B00"/></svg>