<svg width="88" height="88" fill="none" xmlns="http://www.w3.org/2000/svg"><path d="M27.139 31.953a1.289 1.289 0 00-1.813.189c-.521.642-1.212.996-1.945.996-.733 0-1.424-.354-1.944-.996a1.29 1.29 0 00-2.003 1.624c1.005 1.24 2.444 1.95 3.947 1.95 1.503 0 2.942-.71 3.947-1.95a1.29 1.29 0 00-.19-1.813zM17.49 24.3a1.29 1.29 0 00-1.29 1.29v1.473a1.289 1.289 0 002.579 0V25.59a1.29 1.29 0 00-1.29-1.29zm11.783 0a1.29 1.29 0 00-1.29 1.29v1.473a1.289 1.289 0 102.578 0V25.59a1.29 1.29 0 00-1.288-1.29zM69.85 39.317a1.289 1.289 0 00-1.813.189c-.52.642-1.212.995-1.945.995-.733 0-1.423-.353-1.944-.995a1.29 1.29 0 10-2.002 1.624c1.005 1.24 2.443 1.95 3.947 1.95 1.503 0 2.941-.711 3.946-1.95a1.29 1.29 0 00-.189-1.813zm-9.649-7.652a1.29 1.29 0 00-1.289 1.289v1.473a1.29 1.29 0 002.578 0v-1.473a1.29 1.29 0 00-1.289-1.29zm11.782 0a1.29 1.29 0 00-1.289 1.289v1.473a1.289 1.289 0 102.578 0v-1.473a1.29 1.29 0 00-1.289-1.29z" fill="#FF9B00"/><path d="M84.413 57.156l-10.1-4.04c-.054-.021-.104-.049-.156-.076 6.976-1.587 10.28-4.24 10.426-4.361a1.29 1.29 0 00.459-1.18c-.015-.102-1.46-10.335-1.46-20.436 0-9.644-7.846-17.49-17.49-17.49-9.644 0-17.49 7.846-17.49 17.49 0 2.642-.12 5.874-.315 8.934l-2.814 1.407-8.26-4.13c-.024-.012-.05-.02-.073-.03.393-1.146.65-2.354.744-3.607a4.242 4.242 0 002.987-4.047c0-1.28-.572-2.429-1.473-3.206v-8.577c0-2.369-1.197-4.586-3.16-5.918a5.667 5.667 0 00-5.493-4.207H18.962c-6.395 0-11.598 5.203-11.598 11.598v7.104A4.225 4.225 0 005.89 25.59c0 1.9 1.259 3.513 2.987 4.047.325 4.328 2.556 8.13 5.85 10.577v3.563l-10.66 3.198A5.672 5.672 0 000 52.442v14.386c0 .712.577 1.29 1.29 1.29h.183v14.911a1.29 1.29 0 002.578 0V68.117h4.786V83.03a1.29 1.29 0 002.578 0V60.802a5.69 5.69 0 00-.959-3.166l-2.203-3.305a1.29 1.29 0 00-2.145 1.43l2.203 3.305a3.12 3.12 0 01.526 1.736v4.737H2.578V52.442a3.11 3.11 0 012.23-2.997l4.426-1.328c1.54 6.453 7.393 11.164 14.147 11.164a14.48 14.48 0 006.893-1.737 4.23 4.23 0 003.417 1.737h.183v.183c0 4.322 2.378 8.096 5.892 10.091v2.103c0 .079-.051.15-.126.174l-4.809 1.603a5.7 5.7 0 00-3.902 5.415v4.18a1.29 1.29 0 002.578 0v-4.18c0-1.35.86-2.542 2.14-2.969l1.414-.471a10.13 10.13 0 008.412 4.49c3.399 0 6.542-1.7 8.413-4.49l1.413.471a3.125 3.125 0 012.14 2.969v4.18a1.29 1.29 0 002.578 0v-4.18a5.7 5.7 0 00-3.903-5.415l-4.808-1.603a.183.183 0 01-.126-.174v-2.102a11.646 11.646 0 005.458-6.958 13.082 13.082 0 009.454 4.047c5.708 0 10.717-3.69 12.442-9.063l4.92 1.968a3.114 3.114 0 011.968 2.906v6.029h-4.786v-1.657a1.29 1.29 0 00-2.578 0V83.03a1.29 1.29 0 002.578 0V71.063h3.313V83.03a1.29 1.29 0 102.578 0V71.063h.184A1.29 1.29 0 0088 69.774v-7.318a5.679 5.679 0 00-3.587-5.3zM51.18 27.063c0-8.223 6.689-14.912 14.911-14.912 8.223 0 14.912 6.69 14.912 14.912 0 8.656 1.042 17.406 1.381 20.02-1.155.755-4.113 2.42-9.112 3.514v-2.052a14.36 14.36 0 001.956-1.329 14.601 14.601 0 005.047-8.085c.24-1.054.36-2.142.36-3.231 0-7.286-5.268-8.332-10.364-9.344-3.243-.644-6.596-1.31-9.266-3.445a1.29 1.29 0 00-2.094 1.006c0 .035-.056 3.426-4.915 4.641a1.29 1.29 0 00.626 2.501c4.066-1.016 5.725-3.298 6.402-5.012 2.795 1.657 5.926 2.279 8.745 2.838 5.446 1.081 8.288 1.875 8.288 6.815 0 .898-.1 1.793-.296 2.66a12.013 12.013 0 01-4.153 6.651 11.832 11.832 0 01-7.517 2.655c-2.523 0-4.925-.774-6.964-2.237a14.566 14.566 0 00-3.529-5.44v-5.762a1.289 1.289 0 00-1.866-1.153l-2.783 1.392c.153-2.685.23-5.237.23-7.603zm1.84 9.45v4.665l-4.666-2.333 4.666-2.333zm-15.096 0l4.666 2.332-4.666 2.333v-4.666zM30.93 50.626v1.225a4.235 4.235 0 00-1.473 3.194 11.908 11.908 0 01-6.075 1.656c-5.607 0-10.459-3.946-11.672-9.327l3.185-.956c.785 3.969 4.292 6.97 8.487 6.97 3.332 0 6.227-1.893 7.673-4.66a14.44 14.44 0 00-.125 1.898zm-13.623-5.893v-2.986a14.452 14.452 0 006.075 1.332c2.168 0 4.225-.478 6.075-1.332v2.988a6.082 6.082 0 01-6.075 6.075 6.082 6.082 0 01-6.075-6.059v-.018zm6.075-4.233c-6.598 0-11.966-5.367-11.966-11.965a1.29 1.29 0 00-1.29-1.29A1.659 1.659 0 018.47 25.59a1.66 1.66 0 011.657-1.657h2.946c.554 0 1.047-.355 1.222-.881l1.184-3.55c2.962-.066 12.145-.483 17.316-3.069a1.289 1.289 0 10-1.153-2.306c-5.548 2.774-16.982 2.81-17.097 2.81a1.29 1.29 0 00-1.223.881l-1.179 3.537h-2.016c-.062 0-.123.002-.184.005v-6.08c0-4.974 4.047-9.02 9.02-9.02h11.783c1.54 0 2.833 1.11 3.076 2.637.061.389.297.728.64.921 1.455.82 2.36 2.35 2.36 3.99v7.552a3.996 3.996 0 00-.185-.005h-1.472a1.29 1.29 0 000 2.578h1.472c.914 0 1.657.743 1.657 1.657 0 .913-.743 1.656-1.657 1.656a1.29 1.29 0 00-1.289 1.29c0 6.597-5.367 11.965-11.966 11.965zm8.653 4.235v-4.522a14.665 14.665 0 003.313-3.425v3.4a14.564 14.564 0 00-3.322 4.906c.005-.12.01-.239.01-.359zm19.28 29.816a7.544 7.544 0 01-5.84 2.77 7.55 7.55 0 01-5.84-2.77l.821-.274a2.758 2.758 0 001.889-2.62V70.63a11.562 11.562 0 006.259 0v1.027c0 1.19.758 2.244 1.888 2.62l.822.274zm4.469-17.85a1.29 1.29 0 00-1.29 1.29v1.472c0 4.974-4.046 9.02-9.02 9.02-4.974 0-9.02-4.046-9.02-9.02V57.99a1.29 1.29 0 00-1.29-1.289h-1.472a1.658 1.658 0 01-1.657-1.656c0-.588.311-1.12.832-1.423a1.28 1.28 0 00.306-.25c3.186-.093 13.516-.693 20.305-4.572a1.29 1.29 0 00-1.28-2.239c-5.947 3.399-15.292 4.08-18.69 4.215v-.15c0-2.397.726-4.719 2.042-6.677a1.283 1.283 0 001.664.466l8.26-4.13 8.26 4.13a1.29 1.29 0 001.255-.056c.17-.105.307-.246.41-.41a11.978 11.978 0 012.041 6.677v1.882c0 .459.244.883.641 1.114.521.303.832.835.832 1.423 0 .913-.743 1.656-1.656 1.656h-1.473zm10.31 7.364c-3.57 0-6.88-1.817-8.808-4.786a4.24 4.24 0 004.205-4.234c0-1.23-.55-2.397-1.473-3.194v-1.224c0-.52-.028-1.035-.083-1.547a14.451 14.451 0 006.158 1.363c1.572 0 3.127-.26 4.603-.753v1.888a4.215 4.215 0 002.661 3.932l2.78 1.111a10.487 10.487 0 01-10.044 7.444z" fill="#FF9B00"/><path d="M49.231 61.409a1.289 1.289 0 00-1.813.189c-.521.642-1.212.996-1.944.996-.734 0-1.424-.354-1.945-.996a1.29 1.29 0 00-2.002 1.624c1.005 1.239 2.443 1.95 3.947 1.95 1.503 0 2.941-.711 3.946-1.95a1.29 1.29 0 00-.189-1.813zm-8.153-3.596a1.289 1.289 0 100-2.578 1.289 1.289 0 000 2.578zm8.766 0a1.289 1.289 0 100-2.578 1.289 1.289 0 000 2.578z" fill="#FF9B00"/></svg>