<svg width="88" height="88" fill="none" xmlns="http://www.w3.org/2000/svg"><g clip-path="url(#a)" fill="#FF9B00"><path d="M87.965 70.793v-7.744h-8.26v-5.162h-2.752v-4.302h2.753v-7.743H59.118v2.58h18.007v2.582H23.72v2.581h50.65v4.302H18.19a2.153 2.153 0 01-2.151-2.151c0-1.186.965-2.151 2.15-2.151h2.95v-2.581h-2.95a4.737 4.737 0 00-4.731 4.732 4.737 4.737 0 004.732 4.732h58.935v2.581h-44.48v2.581h52.74v2.581H12.51c-4.032 0-7.313 3.281-7.313 7.314 0 4.032 3.28 7.313 7.313 7.313h60.792v-2.581H12.51a4.737 4.737 0 01-4.732-4.732 4.737 4.737 0 014.732-4.733h70.12v4.302H25.416v2.582h57.215v2.58h-6.748v2.582h9.501v2.58H12.511c-5.456 0-9.895-4.438-9.895-9.893 0-5.456 4.439-9.895 9.895-9.895h17.551v-2.58H18.19c-4.033 0-7.313-3.281-7.313-7.314a7.32 7.32 0 017.313-7.313h38.348v-2.581H18.19c-5.456 0-9.894 4.438-9.894 9.894a9.871 9.871 0 003.28 7.352C5.133 63.568.036 68.96.036 75.525.035 82.404 5.632 88 12.511 88h75.454v-7.743h-2.753v-9.465h2.753z"/><path d="M20.254 75.094h2.581v2.582h-2.581v-2.582zm3.528-36.735l.574.383c.224.15 5.648 3.658 19.644 3.658 13.996 0 19.42-3.509 19.644-3.658l.575-.383V16.63l7.744-2.581v12.184a4.74 4.74 0 00-3.442 4.552v6.453h9.464v-6.453a4.74 4.74 0 00-3.441-4.552V13.19l4.51-1.504-13.553-4.518-.816 2.449 6.208 2.069L44 20.649l-26.892-8.964L44 2.72 62.236 8.8l.817-2.45L44 0 8.946 11.685l14.836 4.945v21.73zm51.622-7.574v3.872h-4.302v-3.872c0-1.186.965-2.15 2.151-2.15s2.151.964 2.151 2.15zM26.363 17.491L44 23.37l17.638-5.88v10.112h-3.183v2.58h3.183v2.582h-5.592v2.581h5.592v1.556c-1.663.81-7.015 2.918-17.638 2.918-10.63 0-15.982-2.111-17.637-2.917V17.49zM15.092 75.094h2.58v2.582h-2.58v-2.582z"/><path d="M50.883 32.764h2.581v2.581h-2.58v-2.581z"/></g><defs><clipPath id="a"><path fill="#fff" d="M0 0h88v88H0z"/></clipPath></defs></svg>