<svg width="96" height="96" fill="none" xmlns="http://www.w3.org/2000/svg"><path d="M15.614 92.53H3.47V80.386a1.735 1.735 0 10-3.47 0v13.88C0 95.222.777 96 1.735 96h13.88a1.735 1.735 0 100-3.47zm78.651-13.88c-.958 0-1.735.777-1.735 1.736V92.53H80.385a1.735 1.735 0 100 3.47h13.88c.958 0 1.735-.776 1.735-1.735v-13.88c0-.958-.777-1.734-1.735-1.734zM15.614 0H1.734C.778 0 0 .777 0 1.735v13.88a1.735 1.735 0 103.47 0V3.47h12.144a1.735 1.735 0 100-3.47zm78.651 0h-13.88a1.735 1.735 0 100 3.47H92.53v12.144a1.735 1.735 0 103.47 0V1.734C96 .778 95.223 0 94.265 0zM61.88 46.265H49.735V34.12a1.735 1.735 0 10-3.47 0v12.145H34.121a1.735 1.735 0 100 3.47h12.144V61.88a1.735 1.735 0 103.47 0V49.734H61.88a1.735 1.735 0 100-3.47z" fill="#FFB829"/></svg>