<svg width="90" height="90" fill="none" xmlns="http://www.w3.org/2000/svg"><path d="M61.676 25.353c-6.07 0-11.813 1.874-16.676 5.428a27.98 27.98 0 00-9.983-4.64l7.61-8.72.006-.01c.046-.052.086-.108.122-.168l.017-.028c.034-.058.064-.119.089-.182l.01-.03c.024-.064.043-.13.056-.197l.003-.018a1.4 1.4 0 00.02-.195l.001-.026.001-.014c0-.063-.006-.125-.014-.186l-.006-.035a1.275 1.275 0 00-.048-.195l-.009-.025a1.322 1.322 0 00-.086-.194l-.005-.008a1.309 1.309 0 00-.125-.186l-.004-.005-.005-.006-5.885-7.225A1.321 1.321 0 0035.74 8H20.906c-.397 0-.773.179-1.024.487l-5.885 7.224-.005.006-.004.005a1.31 1.31 0 00-.125.186l-.005.007a1.341 1.341 0 00-.086.195l-.009.025a1.335 1.335 0 00-.068.416v.014l.002.026a1.4 1.4 0 00.02.195l.003.018c.013.068.032.134.055.197l.011.03c.025.063.055.124.088.182l.018.028c.036.06.077.116.122.168l.006.01 7.619 8.73C9.237 29.165 0 40.36 0 53.677 0 69.294 12.706 82 28.323 82c6.07 0 11.814-1.874 16.677-5.429C49.863 80.126 55.606 82 61.676 82 77.294 82 90 69.294 90 53.676c0-15.617-12.706-28.323-28.324-28.323zm-26.563-14.71l3.738 4.588h-4.3l-1.479-4.589h2.04zm-.582 7.23h4.194l-6.73 7.713-.121-.016 2.657-7.697zm-8.18-7.23h3.945l1.48 4.588H24.87l1.48-4.589zm5.385 7.23l-2.587 7.493a24.307 24.307 0 00-1.345-.006l-.306.006-2.587-7.493h6.825zm-10.202-7.23h2.04l-1.479 4.588h-4.299l3.738-4.589zm-3.612 7.23h4.194l2.66 7.701-.12.016-6.734-7.717zm10.401 61.484c-14.16 0-25.68-11.52-25.68-25.68 0-12.811 9.427-23.46 21.709-25.375.307-.047.614-.089.923-.125l.116-.014a26.03 26.03 0 011.248-.108h.02a25.543 25.543 0 011.665-.06c.54 0 1.076.034 1.66.072l.085.003c.022 0 .042-.004.063-.005.706.053 1.425.136 2.17.252.068.01.136.015.203.015h.009c4.246.69 8.222 2.433 11.67 5.144a25.773 25.773 0 013.888 3.784 25.71 25.71 0 015.933 16.416 25.721 25.721 0 01-5.14 15.412l-.02-.017a20.337 20.337 0 01-.541-.468c-.035-.03-.068-.062-.102-.093-.142-.13-.283-.26-.421-.393l-.18-.178c-.11-.108-.22-.217-.327-.328l-.193-.204c-.1-.106-.2-.214-.298-.322l-.089-.1a22.629 22.629 0 004.066-9.945 1.321 1.321 0 10-2.613-.389 19.97 19.97 0 01-3.15 8.143c-2.206-3.29-3.364-7.099-3.364-11.118 0-4.02 1.158-7.829 3.364-11.118a19.915 19.915 0 013.264 9.047 1.321 1.321 0 002.628-.27 22.576 22.576 0 00-4.858-11.838 22.802 22.802 0 00-4.34-4.15 22.514 22.514 0 00-13.368-4.356 22.677 22.677 0 00-14.853 5.538 1.321 1.321 0 001.73 1.996 20.033 20.033 0 0113.123-4.892c3.819 0 7.48 1.062 10.673 3.08a28.368 28.368 0 00-5.644 16.963 28.369 28.369 0 005.644 16.963 19.877 19.877 0 01-10.673 3.08c-11.051 0-20.042-8.992-20.042-20.043 0-4.11 1.234-8.06 3.57-11.422a1.321 1.321 0 00-2.17-1.508 22.551 22.551 0 00-4.043 12.93c0 12.508 10.177 22.685 22.685 22.685a22.5 22.5 0 0012.367-3.666c.032.036.066.07.099.106a26.96 26.96 0 00.518.552c.09.093.181.184.272.276.087.088.174.175.262.261l.279.27.268.254c.094.088.19.174.285.26.064.059.126.117.19.174-4.282 2.956-9.275 4.51-14.54 4.51zm33.353 0c-5.815 0-11.3-1.895-15.86-5.48a25.712 25.712 0 01-9.822-20.2 25.721 25.721 0 015.14-15.413l.02.017c.184.153.364.309.542.468l.105.097c.14.128.28.257.418.39.061.058.12.119.181.179.11.108.218.216.325.326.066.068.13.138.195.207.1.105.198.21.295.318l.09.103a22.758 22.758 0 00-4.314 13.307 22.75 22.75 0 004.978 14.18 22.815 22.815 0 004.34 4.148 22.515 22.515 0 0013.367 4.358 22.568 22.568 0 0015.8-6.407 1.321 1.321 0 00-1.84-1.896 19.938 19.938 0 01-13.96 5.66c-3.819 0-7.48-1.062-10.673-3.08a28.367 28.367 0 005.644-16.963 28.367 28.367 0 00-5.644-16.963 19.877 19.877 0 0110.673-3.08c11.052 0 20.043 8.992 20.043 20.043 0 3.72-1.026 7.352-2.968 10.502A1.321 1.321 0 1081 65.564a22.637 22.637 0 003.36-11.888c0-12.508-10.176-22.685-22.685-22.685a22.5 22.5 0 00-12.366 3.666l-.096-.103a29.56 29.56 0 00-.799-.837l-.253-.253a29.025 29.025 0 00-.288-.277 26.232 26.232 0 00-.556-.517c-.06-.055-.12-.112-.182-.166 4.282-2.955 9.275-4.508 14.54-4.508 14.16 0 25.681 11.52 25.681 25.68s-11.52 25.681-25.68 25.681z" fill="#FF9B00"/></svg>