<svg width="96" height="96" fill="none" xmlns="http://www.w3.org/2000/svg"><g clip-path="url(#a)" fill="#FF9B00"><path d="M96 36.067v-6.67a3.272 3.272 0 00-3.268-3.267 4.296 4.296 0 01-3.055-1.264 4.3 4.3 0 01-1.266-3.056V10.066a3.32 3.32 0 00-3.316-3.316h-4a3.32 3.32 0 00-3.316 3.316v6.874c0 4.264-3.4 7.79-7.58 7.86a7.679 7.679 0 01-5.538-2.211 7.656 7.656 0 01-2.304-5.499v-7.024A3.32 3.32 0 0059.04 6.75h-4a3.321 3.321 0 00-3.316 3.316v4.238a1.406 1.406 0 102.812 0v-4.238c0-.277.227-.504.505-.504h3.999c.278 0 .504.227.504.504v7.024c0 2.844 1.117 5.509 3.145 7.503a10.474 10.474 0 007.557 3.02c5.705-.097 10.345-4.884 10.345-10.673v-6.874c0-.277.227-.504.504-.504h4c.278 0 .504.227.504.504V21.81a7.09 7.09 0 002.09 5.045 7.092 7.092 0 005.043 2.087c.251 0 .456.205.456.456v5.81l-23.12 11.093-23.12-11.092v-5.811a.45.45 0 01.136-.325.447.447 0 01.32-.13 7.14 7.14 0 007.132-7.133v-1.88a1.406 1.406 0 10-2.812 0v1.88a4.325 4.325 0 01-4.32 4.32c-.876 0-1.698.34-2.311.957a3.247 3.247 0 00-.957 2.31v30.11l-7.232 4.335a6.786 6.786 0 00-3.368-.9h-8.39V38.648h8.39a6.767 6.767 0 006.76-6.76 6.767 6.767 0 00-6.76-6.759h-1.473v-1.536a5.525 5.525 0 00-5.52-5.518h-1.398v-2.756a2.91 2.91 0 00-2.906-2.907h-4.183a2.91 2.91 0 00-2.906 2.907v2.756h-1.398a5.525 5.525 0 00-5.52 5.518v1.536H6.76c-.618 0-1.23.084-1.82.248a1.407 1.407 0 00.757 2.71c.343-.097.7-.145 1.063-.145h26.776a3.951 3.951 0 013.947 3.947 3.95 3.95 0 01-3.947 3.946H6.76a3.95 3.95 0 01-3.892-4.613 1.406 1.406 0 10-2.773-.47 6.767 6.767 0 006.664 7.896h8.391v24.293H6.76A6.767 6.767 0 000 69.701c0 1.803.702 3.5 1.98 4.781a6.722 6.722 0 004.78 1.978h1.473v1.536a5.525 5.525 0 005.518 5.52h1.4v2.756a2.91 2.91 0 002.905 2.906h4.183a2.91 2.91 0 002.906-2.906v-2.756h.056c.29.381.611.744.96 1.085a9.731 9.731 0 006.836 2.784h50.699c2.96 0 5.37-2.41 5.37-5.37v-8.33h.75A6.19 6.19 0 0096 67.501V36.067zM17.963 15.32c0-.052.041-.094.093-.094h4.183c.052 0 .094.042.094.094v2.756h-4.37V15.32zm-6.918 9.81v-1.536a2.71 2.71 0 012.707-2.706h12.792a2.71 2.71 0 012.707 2.706v1.536H11.045zm47.928 31.202c.629 0 1.194.396 1.409.987a11.456 11.456 0 0010.738 7.53 11.42 11.42 0 0010.815-7.743 1.142 1.142 0 011.081-.774h.874a2.365 2.365 0 012.363 2.362V76.41h-19.47l-4.612-6.61a1.406 1.406 0 00-2.306 1.61l3.489 5H59.98l-8.687-12.45 2.38-1.427 2.974 4.264a1.406 1.406 0 102.307-1.61l-2.993-4.29a4.98 4.98 0 001.257-3.294V56.33h1.755zm-5.7 20.078l-6.71-9.614 2.311-1.385 7.676 11h-3.277zm-6.805 0l-4.702-6.738 2.38-1.426 5.697 8.165h-3.375zm-13.024-7.216c.072.13.154.257.245.376a4.787 4.787 0 005.629 1.508l3.72 5.332H26.124a7.017 7.017 0 013.287-4.797l4.034-2.419zm20.962-12.562v.972a2.15 2.15 0 01-1.018 1.822l-.074.046-4.721 2.829a1.949 1.949 0 00-.073.044l-4.68 2.804a.57.57 0 00-.027.017l-5.308 3.182a1.978 1.978 0 01-2.586-.492.106.106 0 01-.02-.088.105.105 0 01.046-.072l1.61-.965c.019-.01.038-.023.056-.034l16.732-10.03a2.66 2.66 0 01.063-.035zM17.963 38.648h4.37v24.293h-4.37V38.648zm-6.917 39.348V76.46h7.944a1.406 1.406 0 100-2.812H6.76a3.926 3.926 0 01-2.791-1.154A3.931 3.931 0 012.813 69.7a3.951 3.951 0 013.947-3.947h26.776c.057 0 .114.001.17.004l-5.741 3.441a9.837 9.837 0 00-4.757 8.397c0 .934.132 1.839.377 2.695l.01.033.007.022c.034.12.071.239.11.357h-9.96a2.71 2.71 0 01-2.706-2.707zm11.287 8.276a.094.094 0 01-.094.094h-4.183a.094.094 0 01-.093-.094v-2.756h4.37v2.756zm63.92-4.258a2.56 2.56 0 01-2.558 2.558c-32.437 0-50.735.001-50.884-.002-3.205-.084-5.878-2.341-6.6-5.348h60.043v2.792zm3.563-11.141h-.75v-12.18a5.181 5.181 0 00-5.176-5.175h-.874a3.955 3.955 0 00-3.745 2.68 8.607 8.607 0 01-8.15 5.837 8.636 8.636 0 01-8.096-5.675 4.322 4.322 0 00-4.053-2.842c-3.134.08-4.329-.308-6.075.737l-5.95 3.565V38.328l22.511 10.8a1.409 1.409 0 001.217 0l22.512-10.8V67.5a3.374 3.374 0 01-3.37 3.372z"/><path d="M68.601 31.527h-.945a1.406 1.406 0 100 2.813h.298v4.864h-.172a1.406 1.406 0 100 2.812h3.156a1.406 1.406 0 100-2.812h-.172v-5.512a2.167 2.167 0 00-2.165-2.165z"/></g><defs><clipPath id="a"><path fill="#fff" d="M0 0h96v96H0z"/></clipPath></defs></svg>