<svg width="76" height="100" viewBox="0 0 76 101" fill="none" xmlns="http://www.w3.org/2000/svg"><path fill-rule="evenodd" clip-rule="evenodd" d="M61.661 57.79c-1.353.37-2.223 1.44-2.394 2.82-.588 4.758-.64 8.649-3.182 12.98-2.808 4.784-7.475 8.354-12.735 10.03-2.124.677-5.338.289-7.12 1.595-2.686 1.969-.661 5.725 2.283 5.684 10.538-.146 21.054-7.785 24.858-17.48 1.518-3.867 2.346-7.965 2.265-12.132-.04-2.097-1.7-4.117-3.975-3.496z" fill="#FFAB01"/><circle cx="38" cy="63" r="34.5" stroke="#FFAB01" stroke-width="8"/><path d="M32.036 14.169c2.776 3.083 4.553 6.338 5.274 9 .77 2.843.157 4.094-.258 4.468-.416.375-1.724.853-4.472-.21-2.571-.994-5.623-3.101-8.4-6.184-2.776-3.084-4.553-6.339-5.273-9-.77-2.844-.158-4.095.258-4.47.415-.373 1.723-.852 4.471.21 2.572.995 5.624 3.102 8.4 6.186z" stroke="#FFAB01" stroke-width="8"/><path d="M52.948 17.232c-3.343 1.394-7.261 6.497-8.802 8.875-2.185-.505-6.389-1.835-5.727-3.116.663-1.282 2.807-4.221 3.796-5.531 1.362-1.326 4.785-4.364 7.584-5.915 3.5-1.937 7.328 3.944 3.15 5.687z" fill="#FFAB01"/></svg>