<svg width="74" height="74" class="hidden"><symbol xmlns="http://www.w3.org/2000/svg" id="gallery"><path d="M33.423 24.494a6.732 6.732 0 100 13.465 6.732 6.732 0 000-13.465zm0 10.259a3.527 3.527 0 110-7.053 3.527 3.527 0 010 7.053z"/><path d="M60.273 9.106l-43.76-4.97a6.01 6.01 0 00-4.73 1.363A6.091 6.091 0 009.46 9.667l-.802 6.572H6.174c-3.527 0-6.172 3.126-6.172 6.652v32.78a6.091 6.091 0 006.172 6.252h44c3.527 0 6.733-2.725 6.733-6.252V54.39a8.015 8.015 0 003.045-1.283 6.653 6.653 0 002.324-4.327l3.687-32.54a6.492 6.492 0 00-5.69-7.133zM53.7 55.67c0 1.763-1.764 3.046-3.527 3.046h-44a2.885 2.885 0 01-2.966-3.046v-5.93l12.423-9.138a3.847 3.847 0 014.969.24l8.736 7.695a7.534 7.534 0 004.729 1.763 7.293 7.293 0 003.847-1.042L53.7 40.123V55.67zm0-19.315L36.229 46.534c-1.5.89-3.4.728-4.73-.4l-8.815-7.775a7.133 7.133 0 00-8.897-.32L3.208 45.733V22.89c0-1.763 1.202-3.446 2.966-3.446h44a3.687 3.687 0 013.527 3.446v13.465zm9.06-20.55l-.004.032-3.767 32.54a2.725 2.725 0 01-1.042 2.164c-.32.32-1.042.48-1.042.64v-28.29a6.893 6.893 0 00-6.732-6.653h-38.31l.721-6.252c.157-.81.58-1.543 1.203-2.083a3.686 3.686 0 012.404-.642l43.68 5.05a3.206 3.206 0 012.888 3.494z"/></symbol><symbol xmlns="http://www.w3.org/2000/svg" id="like"><path d="M50.008 0c-.798 0-1.446.647-1.446 1.445v6.649a1.445 1.445 0 002.891 0V1.445C51.453.647 50.806 0 50.008 0zM16.766 45.094a1.446 1.446 0 100 2.891 1.446 1.446 0 000-2.891z"/><path d="M70.242 42.203a5.788 5.788 0 00-5.781-5.781H53.67c1.67-4.279 2.347-9.315 2.217-13.798-.025-.855-.058-1.35-.103-1.661a5.79 5.79 0 00-5.777-5.643 5.788 5.788 0 00-5.781 5.782v1.445c0 9.14-11.738 14.277-20.597 16.48a4.342 4.342 0 00-3.974-2.605H5.203c-.798 0-1.445.647-1.445 1.445v34.688c0 .798.647 1.445 1.445 1.445h14.453a4.341 4.341 0 003.96-2.574c.734.188 1.415.366 2.044.53C30.706 73.274 33.486 74 40.245 74H55.79a5.788 5.788 0 005.781-5.781c0-1.189-.36-2.294-.978-3.214a5.783 5.783 0 003.869-5.458 5.786 5.786 0 00-.968-3.218 5.784 5.784 0 002.88-8.668 5.783 5.783 0 003.87-5.458zm-49.14 27.461c0 .797-.649 1.445-1.446 1.445H6.648V39.313h13.008c.797 0 1.446.648 1.446 1.445v28.906zm43.359-24.57h-7.227a1.445 1.445 0 000 2.89h4.336a2.89 2.89 0 110 5.781h-7.226a1.445 1.445 0 000 2.891h4.336a2.881 2.881 0 012.89 2.89 2.89 2.89 0 01-2.89 2.892h-7.227a1.445 1.445 0 000 2.89h4.336a2.894 2.894 0 012.89 2.89 2.894 2.894 0 01-2.89 2.891H40.246c-6.39 0-8.885-.651-13.856-1.95a423.94 423.94 0 00-2.398-.62V41.918c10.46-2.492 23.125-8.573 23.125-19.371v-1.445a2.894 2.894 0 012.89-2.891 2.895 2.895 0 012.891 2.886v.005c0 .628.784 8.337-2.36 15.32h-4.866a1.445 1.445 0 000 2.89H64.46a2.89 2.89 0 110 5.781z"/><path d="M16.766 50.875c-.798 0-1.446.647-1.446 1.445v11.563a1.445 1.445 0 002.89 0V52.32c0-.798-.646-1.445-1.444-1.445zM38.445 18.21h-5.78a1.445 1.445 0 000 2.892h5.78a1.445 1.445 0 000-2.891zm28.907 0H61.57a1.445 1.445 0 000 2.892h5.782a1.445 1.445 0 000-2.891zM63.293 6.37a1.446 1.446 0 00-2.044 0l-4.087 4.088a1.446 1.446 0 002.044 2.044l4.087-4.087a1.446 1.446 0 000-2.044zm-20.44 4.088l-4.087-4.087a1.446 1.446 0 00-2.044 2.044l4.087 4.087a1.446 1.446 0 002.044-2.044z"/></symbol></svg>